<?xml version="1.0" encoding="UTF-8" standalone="no"?>
<!-- Created with Inkscape (http://www.inkscape.org/) -->

<svg
   width="48"
   height="48"
   viewBox="0 0 12.7 12.7"
   version="1.1"
   id="svg957"
   xmlns="http://www.w3.org/2000/svg"
   xmlns:svg="http://www.w3.org/2000/svg">
  <defs
     id="defs954" />
  <g
     id="layer1">
    <path
       id="path3724"
       style="fill-rule:evenodd;stroke:#000000;stroke-width:0;stroke-linecap:square;stroke-opacity:0.356643;paint-order:fill markers stroke;fill:hsl(13, 50%, 30%)"
       d="M 24.001953 6.5097656 C 23.14554 6.5059163 22.292192 7.0136643 21.583984 8.0273438 C 15.18352 18.694785 9.4004659 28.332559 3 39 C 1.6178099 40.970317 2.9999998 44 5 44 L 24 44 L 43 44 C 45 44 46.377758 40.96293 45 39 C 38.604216 28.340361 32.831329 18.718234 26.435547 8.0585938 C 25.718101 7.0295171 24.858366 6.5136149 24.001953 6.5097656 z M 23.375 14 L 24.625 14 C 26.49475 14 28 15.50525 28 17.375 L 28 28.625 C 28 30.49475 26.49475 32 24.625 32 L 23.375 32 C 21.50525 32 20 30.49475 20 28.625 L 20 17.375 C 20 15.50525 21.50525 14 23.375 14 z M 23 35 L 25 35 C 26.661999 35 28 36.337999 28 38 C 28 39.661998 26.661999 41 25 41 L 23 41 C 21.338001 41 20 39.661998 20 38 C 20 36.337999 21.338001 35 23 35 z "
       transform="scale(0.26458333)" />
  </g>
</svg>
