<?xml version="1.0" encoding="UTF-8" standalone="no"?>
<!-- Created with Inkscape (http://www.inkscape.org/) -->

<svg
   width="48"
   height="48"
   viewBox="0 0 12.7 12.7"
   version="1.1"
   id="svg914"
   sodipodi:docname="calendar icon.svg"
   inkscape:version="1.1.1 (3bf5ae0d25, 2021-09-20)"
   xmlns:inkscape="http://www.inkscape.org/namespaces/inkscape"
   xmlns:sodipodi="http://sodipodi.sourceforge.net/DTD/sodipodi-0.dtd"
   xmlns="http://www.w3.org/2000/svg"
   xmlns:svg="http://www.w3.org/2000/svg">
  <sodipodi:namedview
     id="namedview12923"
     pagecolor="#ffffff"
     bordercolor="#999999"
     borderopacity="1"
     inkscape:pageshadow="0"
     inkscape:pageopacity="0"
     inkscape:pagecheckerboard="0"
     showgrid="false"
     inkscape:zoom="8.4166667"
     inkscape:cx="42"
     inkscape:cy="36.594059"
     inkscape:window-width="1920"
     inkscape:window-height="1058"
     inkscape:window-x="-8"
     inkscape:window-y="-8"
     inkscape:window-maximized="1"
     inkscape:current-layer="layer1" />
  <defs
     id="defs911" />
  <g
     id="layer1"
     style="fill:none">
    <path
       id="rect2121"
       style="fill-rule:evenodd;stroke:#fff;stroke-width:1.49164;paint-order:fill markers stroke;stroke-linecap:round"
       d="M 6.209187,9.2846155 H 6.4227553 V 9.5201677 H 6.209187 Z m -2.8515601,0.0019 H 3.5711952 V 9.5220656 H 3.3576269 Z m 5.7031202,0.0019 H 9.2743154 V 9.5239634 H 9.0607471 Z M 6.2092624,6.2530303 H 6.4228307 V 6.4885825 H 6.2092624 Z m -2.8516355,0.0019 h 0.2135683 v 0.23555 H 3.3576269 Z m 5.7031202,0.0019 H 9.2743154 V 6.4923786 H 9.0607471 Z M 3.9743967,0.93757667 v 2.97461413 0.00654 M 8.5920483,0.93757667 V 3.9187298 M 2.5412865,2.2527575 h 7.5984755 c 0.961065,0 1.734774,0.7737094 1.734774,1.7347743 v 6.1491772 c 0,0.961065 -0.773709,1.734774 -1.734774,1.734774 H 2.5412865 c -0.961065,0 -1.73477426,-0.773709 -1.73477426,-1.734774 V 3.9875318 c 0,-0.9610649 0.77370926,-1.7347743 1.73477426,-1.7347743 z"
       sodipodi:nodetypes="cccccccccccccccccccccccccccccccccccsssssssss" />
  </g>
</svg>
