<?xml version="1.0" encoding="UTF-8" standalone="no"?>
<!-- Created with Inkscape (http://www.inkscape.org/) -->

<svg
   width="48"
   height="48"
   viewBox="0 0 12.7 12.7"
   version="1.1"
   id="svg5"
   xmlns="http://www.w3.org/2000/svg"
   xmlns:svg="http://www.w3.org/2000/svg">
  <defs
     id="defs2" />
  <g
     id="layer1">
    <path
       style="fill:none;fill-opacity:0.382284;fill-rule:evenodd;stroke:#000000;stroke-width:0;stroke-linecap:square;stroke-opacity:0.356643;paint-order:fill markers stroke"
       d="M 89.636996,117.72601 141.68428,83.853964 Z"
       id="path857" />
    <path
       id="path4958"
       style="fill-rule:evenodd;stroke:#808000;stroke-width:0;stroke-linecap:square;stroke-opacity:0.356643;paint-order:fill markers stroke;fill:#ffffff"
       d="M 24.494141 0.068359375 C 16.301354 0.068359375 9.6601567 7.0552606 9.6601562 15.248047 C 9.8079511 18.040634 10.549184 18.852189 11.882812 21.320312 L 17.476562 30.21875 A 22.010038 8.9797642 0 0 0 2.0703125 38.765625 A 22.010038 8.9797642 0 0 0 24.080078 47.746094 A 22.010038 8.9797642 0 0 0 46.089844 38.765625 A 22.010038 8.9797642 0 0 0 31.373047 30.314453 L 37.123047 21.232422 C 38.592096 18.982316 39.09934 17.479121 39.328125 15.248047 C 39.328125 7.0552614 32.686926 0.068360205 24.494141 0.068359375 z M 24.576172 7.5234375 C 28.484802 7.5228292 31.653826 10.690979 31.654297 14.599609 C 31.653827 18.508239 28.484802 21.676389 24.576172 21.675781 C 20.668305 21.675311 17.50047 18.507476 17.5 14.599609 C 17.500471 10.691742 20.668305 7.5239078 24.576172 7.5234375 z M 19.974609 34.193359 L 22.304688 37.900391 C 23.51429 39.431247 24.866188 39.959893 26.59375 37.865234 L 28.869141 34.271484 A 13.799399 4.2534719 0 0 1 37.878906 38.248047 A 13.799399 4.2534719 0 0 1 24.080078 42.501953 A 13.799399 4.2534719 0 0 1 10.28125 38.248047 A 13.799399 4.2534719 0 0 1 19.974609 34.193359 z "
       transform="scale(0.26458333)" />
  </g>
</svg>
