<?xml version="1.0" encoding="UTF-8" standalone="no"?>
<!-- Created with Inkscape (http://www.inkscape.org/) -->

<svg
   width="48"
   height="48"
   viewBox="0 0 12.7 12.7"
   version="1.1"
   id="svg914"
   xmlns="http://www.w3.org/2000/svg"
   xmlns:svg="http://www.w3.org/2000/svg">
  <defs
     id="defs911" />
  <g
     id="layer1">
    <path
       id="rect1222"
       style="fill:#fff;fill-rule:evenodd;stroke:#fff;stroke-width:0;stroke-miterlimit:4;stroke-dasharray:none;paint-order:fill markers stroke"
       d="m 6.86543,5.243303 c -3.6323717,0 -6.9101941,3.1010458 -6.9101941,6.733417 v 28.98743 c 0,3.632372 3.8965408,6.998583 7.5289125,6.998583 l 32.5194496,0 c 3.632371,0 7.959675,-3.543004 7.970853,-7.175359 L 48.06284,12.065108 C 48.074018,8.4327543 44.254687,5.243303 40.622316,5.243303 Z m 4.449023,6.516463 c 1.492021,-9.48e-4 3.214294,0.579571 5.072266,1.845703 6.994717,4.766613 4.452947,8.771724 0.318359,10.972656 0.799566,4.020686 5.583656,8.29023 10.478516,7.740234 1.876141,-5.480223 4.004858,-7.310028 10.267578,-3.429687 6.907506,4.279845 6.581862,11.188283 -5.666016,12.527344 C 19.593633,42.748915 7.9670284,31.192523 6.2285156,22.900391 4.8256231,16.209056 7.1894549,11.762387 11.314453,11.759766 Z"
       transform="scale(0.26458333)" />
  </g>
</svg>
